<?xml version="1.0" encoding="UTF-8" standalone="no"?><!DOCTYPE svg PUBLIC "-//W3C//DTD SVG 1.1//EN" "http://www.w3.org/Graphics/SVG/1.1/DTD/svg11.dtd"><svg width="100%" height="100%" viewBox="0 0 851 851" version="1.1" xmlns="http://www.w3.org/2000/svg" xmlns:xlink="http://www.w3.org/1999/xlink" xml:space="preserve" xmlns:serif="http://www.serif.com/" style="fill-rule:evenodd;clip-rule:evenodd;stroke-linecap:round;stroke-linejoin:round;stroke-miterlimit:1.414;"><g id="Layer11"><circle cx="447.311" cy="516.661" r="285.816" style="fill:#c9c4a5;"/></g><g id="Layer4"><path d="M316.084,583.789c0,0 -39.653,47.59 -35.913,85.985c6.885,70.686 137.575,97.528 175.54,96.823c53.976,-1.002 176.254,-71.639 171.867,-125.62c-4.468,-54.962 -43.362,-71.199 -43.362,-71.199l-268.132,14.011Z" style="fill:url(#_Linear1);"/></g><g id="Layer1"><path d="M610.331,29.642c0,0 -88.725,54.872 -94.945,164.31c-6.145,108.109 -26.677,131.25 -42.724,148.457c-0.201,0.215 -0.401,0.43 -0.601,0.644c29.652,11.884 35.72,25.073 35.72,25.073c0,0 157.62,-79.072 172.56,-135.689c10.509,-39.822 3.872,-97.342 -17.33,-124.443c-23.562,-30.118 -52.68,-78.352 -52.68,-78.352Z" style="fill:url(#_Linear2);"/></g><g id="Layer2"><path d="M375.89,390.396c0,0 -113.86,-75.513 -185.244,-68.434c-71.384,7.079 -111.501,30.677 -117.4,29.498c-5.9,-1.18 1.18,83.182 91.442,113.86c90.262,30.677 116.22,-37.757 188.784,-47.196c17.699,-18.289 22.418,-27.728 22.418,-27.728Z" style="fill:url(#_Linear3);"/></g><g id="Layer3"><path d="M429.354,344.269c-16.36,5.633 -42.337,14.532 -54.486,26.937c-14.574,14.882 -27.034,44.543 -35.776,57.426c-20.805,30.659 -35.397,61.355 -9.439,123.89c-13.569,34.217 -31.857,71.384 -16.519,97.342c15.339,25.957 39.181,40.74 93.802,38.346c24.688,-1.081 47.094,7.077 47.196,-30.087c0.08,0.599 0.164,1.192 0.253,1.778c2.451,16.267 13.962,18.459 21.056,25.654c15.279,15.497 68.611,-9.85 80.163,-16.223c17.108,-9.439 35.987,-23.598 32.447,-63.125c2.95,-28.317 -11.209,-64.304 -24.188,-68.434c32.447,-36.577 -12.979,-139.818 -38.937,-163.416c-25.958,-23.598 -59.585,-42.476 -95.572,-30.088Z" style="fill:url(#_Linear4);"/></g><g id="Layer5"><path d="M398.915,574.221c0,0 -9.08,10.204 -19.505,8.387c-24.541,-4.278 -13.7,-18.386 -50.554,-32.898" style="fill:url(#_Linear5);stroke:#466150;stroke-width:7.83px;"/></g><g id="Layer6"><path d="M491.153,563.012c0,0 6.773,15.221 26.078,10.949c22.633,-5.007 10.601,-22.649 46.796,-35.491" style="fill:url(#_Linear6);stroke:#466150;stroke-width:7.83px;"/></g><g id="Layer7"><path d="M436.217,643.262c0,0 17.463,29.261 37.757,-3.776" style="fill:url(#_Linear7);stroke:#466150;stroke-width:7.83px;"/></g><g id="Layer8"><path d="M606.098,32.998c0,0 -40.7,32.102 -64.08,74.374c-19.779,35.763 -22.802,81.489 -23.187,93.587c-0.558,17.517 0.038,36.684 3.568,51.979c8.849,38.347 -30.235,84.068 -33.185,92.917c42.034,-39.084 64.895,-71.531 103.241,-78.168c38.347,-6.637 84.068,-42.772 90.705,-72.269" style="fill:url(#_Linear8);"/></g><g id="Layer9"><path d="M148.465,327.765c0,0 29.733,-2.832 66.074,16.519c36.341,19.35 105.247,39.644 137.812,57.107c-48.139,6.607 -55.219,10.855 -76.457,26.429c-21.238,15.575 -75.986,39.645 -105.247,37.757" style="fill:url(#_Linear9);"/></g><g id="Layer10"></g><defs><linearGradient id="_Linear1" x1="0" y1="0" x2="1" y2="0" gradientUnits="userSpaceOnUse" gradientTransform="matrix(872.531,0,0,361.594,-244.839,585.813)"><stop offset="0" style="stop-color:#466150;stop-opacity:1"/><stop offset="0.2" style="stop-color:#899176;stop-opacity:1"/><stop offset="0.28" style="stop-color:#848e73;stop-opacity:1"/><stop offset="0.37" style="stop-color:#808b71;stop-opacity:1"/><stop offset="0.72" style="stop-color:#7f8a70;stop-opacity:1"/><stop offset="1" style="stop-color:#496352;stop-opacity:1"/></linearGradient><linearGradient id="_Linear2" x1="0" y1="0" x2="1" y2="0" gradientUnits="userSpaceOnUse" gradientTransform="matrix(613.55,0,0,661.097,71.6983,360.19)"><stop offset="0" style="stop-color:#7b8b79;stop-opacity:1"/><stop offset="0.62" style="stop-color:#c6b27e;stop-opacity:1"/><stop offset="0.67" style="stop-color:#a39f7c;stop-opacity:1"/><stop offset="0.74" style="stop-color:#87907a;stop-opacity:1"/><stop offset="1" style="stop-color:#7d8b79;stop-opacity:1"/></linearGradient><linearGradient id="_Linear3" x1="0" y1="0" x2="1" y2="0" gradientUnits="userSpaceOnUse" gradientTransform="matrix(613.55,0,0,661.097,71.6983,360.19)"><stop offset="0" style="stop-color:#7b8b79;stop-opacity:1"/><stop offset="0.62" style="stop-color:#c6b27e;stop-opacity:1"/><stop offset="0.67" style="stop-color:#a39f7c;stop-opacity:1"/><stop offset="0.74" style="stop-color:#87907a;stop-opacity:1"/><stop offset="1" style="stop-color:#7d8b79;stop-opacity:1"/></linearGradient><linearGradient id="_Linear4" x1="0" y1="0" x2="1" y2="0" gradientUnits="userSpaceOnUse" gradientTransform="matrix(613.55,0,0,661.097,71.6983,360.19)"><stop offset="0" style="stop-color:#ceb77c;stop-opacity:1"/><stop offset="0.5" style="stop-color:#a39f7a;stop-opacity:1"/><stop offset="1" style="stop-color:#7d8b79;stop-opacity:1"/></linearGradient><linearGradient id="_Linear5" x1="0" y1="0" x2="1" y2="0" gradientUnits="userSpaceOnUse" gradientTransform="matrix(763.52,0,0,661.097,8.84137,360.19)"><stop offset="0" style="stop-color:#7b8b79;stop-opacity:0"/><stop offset="0.62" style="stop-color:#c6b27e;stop-opacity:0"/><stop offset="0.67" style="stop-color:#a39f7c;stop-opacity:0"/><stop offset="0.74" style="stop-color:#87907a;stop-opacity:0"/><stop offset="1" style="stop-color:#7d8b79;stop-opacity:0"/></linearGradient><linearGradient id="_Linear6" x1="0" y1="0" x2="1" y2="0" gradientUnits="userSpaceOnUse" gradientTransform="matrix(756.38,0,0,661.097,-42.9121,360.19)"><stop offset="0" style="stop-color:#7b8b79;stop-opacity:0"/><stop offset="0.62" style="stop-color:#c6b27e;stop-opacity:0"/><stop offset="0.67" style="stop-color:#a39f7c;stop-opacity:0"/><stop offset="0.74" style="stop-color:#87907a;stop-opacity:0"/><stop offset="1" style="stop-color:#7d8b79;stop-opacity:0"/></linearGradient><linearGradient id="_Linear7" x1="0" y1="0" x2="1" y2="0" gradientUnits="userSpaceOnUse" gradientTransform="matrix(613.55,0,0,661.097,71.6983,360.19)"><stop offset="0" style="stop-color:#7b8b79;stop-opacity:1"/><stop offset="0.62" style="stop-color:#c6b27e;stop-opacity:1"/><stop offset="0.67" style="stop-color:#a39f7c;stop-opacity:1"/><stop offset="0.74" style="stop-color:#87907a;stop-opacity:1"/><stop offset="1" style="stop-color:#7d8b79;stop-opacity:1"/></linearGradient><linearGradient id="_Linear8" x1="0" y1="0" x2="1" y2="0" gradientUnits="userSpaceOnUse" gradientTransform="matrix(193.946,0,0,312.858,489.214,189.426)"><stop offset="0" style="stop-color:#466150;stop-opacity:1"/><stop offset="1" style="stop-color:#ceb77c;stop-opacity:0"/></linearGradient><linearGradient id="_Linear9" x1="0" y1="0" x2="1" y2="0" gradientUnits="userSpaceOnUse" gradientTransform="matrix(203.887,0,0,138.062,148.465,396.651)"><stop offset="0" style="stop-color:#808e79;stop-opacity:0.0431373"/><stop offset="1" style="stop-color:#7f8c78;stop-opacity:1"/></linearGradient></defs></svg>